<?xml version="1.0" encoding="UTF-8"?>
<svg id="Layer_1" data-name="Layer 1" xmlns="http://www.w3.org/2000/svg" viewBox="0 0 17.35 9.43">
  <defs>
    <style>
      .cls-1 {
        fill: #231f20;
        stroke-width: 0px;
      }
    </style>
  </defs>
  <path class="cls-1" d="m2.85,8.63l1.54-.05-.64.74-2.7.11.69-.79.64.02c.45-.34.69-.98.71-1.92v-.57s.12-4.47.12-4.47c-1.74.49-2.56,1.23-2.47,2.23.04.4.15.75.34,1.05l-.87.91c-.11-.29-.18-.59-.2-.9-.09-1.06.28-1.96,1.12-2.71.84-.75,1.97-1.18,3.4-1.31,1.91-.17,2.93.38,3.04,1.63.07.79-.23,1.5-.89,2.13-.66.63-1.54,1.02-2.63,1.18-.01.91-.08,1.52-.21,1.81-.13.29-.46.59-.99.91Zm1.3-7.08l-.09,3.76c.22.02.41.02.58,0,1.5-.13,2.18-.85,2.07-2.15-.11-1.22-.96-1.76-2.56-1.62Z"/>
  <path class="cls-1" d="m6.62,4.38l-.87.99c-.12-.3-.19-.6-.21-.9-.08-.96.21-1.8.88-2.5.67-.7,1.56-1.1,2.66-1.19.18-.02.34-.02.49-.02.09,0,.16,0,.19,0h.08c0,.11.01.19.02.24.05.6.4,1.54,1.04,2.83l.32.64c.04.09.11.24.21.45l.27.59c.15.31.27.62.39.92l.26-.53c.29-.58.54-1.12.77-1.6l.49-1.04.37-.86.45-1.03c.04-.09.13-.29.25-.58l1.07-.8c-.12,1.47-.14,2.65-.07,3.53l.09,1.92.04.72c.05.61.13,1,.22,1.18.1.18.27.26.54.24.28-.02.52-.08.73-.18.04.04.06.08.06.12.01.13-.11.24-.37.32l-.3.1-1.63.48c-.05-.36-.09-.7-.12-1.01-.17-1.98-.24-3.75-.2-5.31-.47.81-.82,1.46-1.05,1.96l-.3.63c-.41.87-.72,1.7-.95,2.49l-.76.95c-.12-.73-.5-1.74-1.14-3.02l-.28-.57c-.04-.07-.12-.23-.26-.5-.27-.52-.48-1.02-.63-1.5l-.22,2.93c-.06.88-.15,1.48-.28,1.81-.12.33-.37.61-.74.84l1.47-.02-.68.75-2.5.09.69-.79h.67c.24-.21.4-.46.49-.75.08-.29.16-.85.23-1.71l.34-4.16-.27.02c-1.62.14-2.38.75-2.29,1.82.03.33.15.66.36.99Z"/>
</svg>